<svg version="1.1" xmlns="http://www.w3.org/2000/svg" xmlns:xlink="http://www.w3.org/1999/xlink" x="0px" y="0px"
 viewBox="0 0 266 64" style="enable-background:new 0 0 266 64;" xml:space="preserve">
<path id="XMLID_6_" fill="#757575" d="M70.2,48V17.5h9.3c4.7,0,8.4,1.4,11.3,4.2c2.8,2.8,4.2,6.5,4.2,11c0,4.5-1.4,8.2-4.2,11
  C88,46.6,84.2,48,79.5,48H70.2z M74.1,44.2h5.4c3.5,0,6.3-1,8.4-3c2.1-2,3.1-4.8,3.1-8.5c0-3.6-1-6.4-3.1-8.5
  c-2.1-2-4.9-3.1-8.4-3.1h-5.4V44.2z M107.5,48.7c-3.2,0-5.7-1.1-7.7-3.2c-2-2.1-3-4.8-3-8c0-3,1-5.7,2.9-7.9
  c1.9-2.2,4.4-3.3,7.4-3.3c3.1,0,5.6,1,7.4,3c1.9,2,2.8,4.7,2.8,8.1l0,0.7h-16.5c0.1,2.1,0.8,3.8,2.1,5c1.3,1.2,2.8,1.8,4.5,1.8
  c2.8,0,4.7-1.2,5.7-3.6l3.5,1.5c-0.7,1.6-1.8,3-3.4,4.1S109.8,48.7,107.5,48.7z M113.2,35c-0.1-1.2-0.6-2.3-1.6-3.4
  c-1-1.1-2.5-1.6-4.5-1.6c-1.5,0-2.7,0.5-3.8,1.4c-1.1,0.9-1.8,2.1-2.2,3.7H113.2z M125.3,48l-8.4-20.9h4.3l6.1,16.2h0.1l6.2-16.2
  h4.2L129.2,48H125.3z M147.8,48.7c-3.2,0-5.7-1.1-7.7-3.2c-2-2.1-3-4.8-3-8c0-3,1-5.7,2.9-7.9c1.9-2.2,4.4-3.3,7.4-3.3
  c3.1,0,5.6,1,7.4,3c1.9,2,2.8,4.7,2.8,8.1l0,0.7h-16.5c0.1,2.1,0.8,3.8,2.1,5c1.3,1.2,2.8,1.8,4.5,1.8c2.8,0,4.7-1.2,5.7-3.6
  L157,43c-0.7,1.6-1.8,3-3.4,4.1S150.1,48.7,147.8,48.7z M153.5,35c-0.1-1.2-0.6-2.3-1.6-3.4c-1-1.1-2.5-1.6-4.5-1.6
  c-1.5,0-2.7,0.5-3.8,1.4c-1.1,0.9-1.8,2.1-2.2,3.7H153.5z M164,48h-3.9V17.5h3.9V48z M169.6,29.6c2-2.1,4.6-3.2,7.7-3.2
  c3.1,0,5.7,1.1,7.7,3.2c2,2.1,3,4.8,3,8c0,3.2-1,5.8-3,8c-2,2.1-4.6,3.2-7.7,3.2c-3.1,0-5.7-1.1-7.7-3.2c-2-2.1-3-4.8-3-8
  C166.6,34.4,167.6,31.7,169.6,29.6z M172.5,43c1.4,1.4,3,2.1,4.8,2.1c1.8,0,3.4-0.7,4.8-2.1c1.4-1.4,2-3.2,2-5.5
  c0-2.3-0.7-4.1-2-5.5c-1.4-1.4-3-2.1-4.8-2.1c-1.8,0-3.4,0.7-4.8,2.1c-1.4,1.4-2,3.2-2,5.5C170.5,39.8,171.2,41.6,172.5,43z
   M201.5,48.7c-1.6,0-3-0.3-4.3-1c-1.3-0.7-2.2-1.5-2.8-2.6h-0.2l0.2,2.9v9.2h-3.9V27.1h3.8V30h0.2c0.6-1,1.6-1.9,2.8-2.6
  c1.3-0.7,2.7-1,4.3-1c2.7,0,5,1.1,7,3.2c2,2.1,2.9,4.8,2.9,7.9c0,3.2-1,5.8-2.9,7.9C206.5,47.6,204.2,48.7,201.5,48.7z M200.9,45.1
  c1.8,0,3.4-0.7,4.7-2.1c1.3-1.4,2-3.2,2-5.5c0-2.3-0.7-4.1-2-5.5c-1.3-1.4-2.9-2.1-4.7-2.1c-1.8,0-3.4,0.7-4.7,2
  c-1.3,1.4-1.9,3.2-1.9,5.5c0,2.3,0.6,4.1,1.9,5.5C197.4,44.4,199,45.1,200.9,45.1z M223.5,48.7c-3.2,0-5.7-1.1-7.7-3.2
  c-2-2.1-3-4.8-3-8c0-3,1-5.7,2.9-7.9c1.9-2.2,4.4-3.3,7.4-3.3c3.1,0,5.6,1,7.4,3c1.9,2,2.8,4.7,2.8,8.1l0,0.7h-16.5
  c0.1,2.1,0.8,3.8,2.1,5c1.3,1.2,2.8,1.8,4.5,1.8c2.8,0,4.7-1.2,5.7-3.6l3.5,1.5c-0.7,1.6-1.8,3-3.4,4.1S225.8,48.7,223.5,48.7z
   M229.1,35c-0.1-1.2-0.6-2.3-1.6-3.4c-1-1.1-2.5-1.6-4.5-1.6c-1.5,0-2.7,0.5-3.8,1.4c-1.1,0.9-1.8,2.1-2.2,3.7H229.1z M239.6,48
  h-3.9V27.1h3.8v3.4h0.2c0.4-1.1,1.2-2.1,2.5-2.8c1.2-0.7,2.4-1.1,3.6-1.1c1.2,0,2.1,0.2,2.9,0.5l-1.5,3.7c-0.5-0.2-1.2-0.3-2.1-0.3
  c-1.4,0-2.7,0.6-3.8,1.7c-1.1,1.1-1.6,2.6-1.6,4.4V48z M257.5,48.7c-2.3,0-4.3-0.6-5.8-1.7c-1.5-1.1-2.6-2.6-3.3-4.3l3.5-1.5
  c1.1,2.6,3,3.9,5.7,3.9c1.2,0,2.2-0.3,3-0.8c0.8-0.5,1.2-1.3,1.2-2.1c0-1.4-1-2.3-2.9-2.8l-4.2-1c-1.3-0.3-2.6-1-3.8-1.9
  c-1.2-1-1.8-2.2-1.8-3.9c0-1.8,0.8-3.3,2.5-4.5c1.6-1.2,3.6-1.7,5.8-1.7c1.8,0,3.5,0.4,4.9,1.3c1.5,0.8,2.5,2,3.1,3.6l-3.4,1.4
  c-0.8-1.8-2.4-2.8-4.8-2.8c-1.2,0-2.1,0.2-2.9,0.7c-0.8,0.5-1.2,1.1-1.2,2c0,1.2,0.9,2,2.8,2.4l4.1,1c2,0.5,3.4,1.2,4.4,2.3
  c0.9,1.1,1.4,2.4,1.4,3.8c0,1.9-0.8,3.4-2.3,4.7C261.9,48.1,259.9,48.7,257.5,48.7z"/>
<path id="Android" fill="#78C257" d="M3.9,20.7c-2.2,0-3.9,1.8-3.9,3.9l0,16.5c0,2.2,1.8,4,4,4c2.2,0,4-1.8,3.9-4l0-16.5
  C7.9,22.5,6.1,20.7,3.9,20.7 M35.8,5.8l2.8-5c0.1-0.3,0.1-0.6-0.2-0.7c-0.3-0.1-0.6,0-0.7,0.2l-2.8,5.1c-2.3-1-5-1.6-7.7-1.6
  c-2.8,0-5.4,0.6-7.7,1.6l-2.8-5.1c-0.1-0.3-0.5-0.4-0.7-0.2c-0.3,0.1-0.4,0.5-0.2,0.7l2.8,5C12.9,8.6,9.3,14,9.3,20.1l35.6,0
  C44.9,14,41.2,8.6,35.8,5.8 M19,13.6c-0.8,0-1.5-0.7-1.5-1.5c0-0.8,0.7-1.5,1.5-1.5c0.8,0,1.5,0.7,1.5,1.5
  C20.5,13,19.8,13.6,19,13.6 M35.2,13.6c-0.8,0-1.5-0.7-1.5-1.5c0-0.8,0.7-1.5,1.5-1.5c0.8,0,1.5,0.7,1.5,1.5
  C36.7,13,36,13.6,35.2,13.6 M9.4,21.4l0,25.6c0,2.3,1.9,4.2,4.2,4.2l2.9,0l0,8.8c0,2.2,1.8,4,3.9,4c2.2,0,4-1.8,4-4l0-8.8l5.3,0
  l0,8.8c0,2.2,1.8,4,3.9,3.9c2.2,0,4-1.8,4-4l0-8.7l2.9,0c2.3,0,4.2-1.9,4.2-4.2l0-25.6L9.4,21.4z M54.2,24.6c0-2.2-1.8-3.9-3.9-3.9
  c-2.2,0-3.9,1.8-3.9,4l0,16.5c0,2.2,1.8,3.9,3.9,3.9c2.2,0,3.9-1.8,3.9-4L54.2,24.6z"/>
</svg>
